<svg width="223" height="71" viewBox="0 0 223 71" fill="none" xmlns="http://www.w3.org/2000/svg">
<path fill-rule="evenodd" clip-rule="evenodd" d="M63.0818 67.077C66.3878 68.179 69.9838 69.02 73.8698 69.6C77.7558 70.18 81.9898 70.47 86.5718 70.47C94.3438 70.47 101.072 69.629 106.756 67.947C112.498 66.323 117.283 64.061 121.111 61.161C124.997 58.261 128.013 54.926 130.159 51.156L130.424 50.7026C132.477 47.1961 133.81 44.9202 134.422 40.803L116.026 38.7539C115.416 44.1996 113.346 49.4154 109.989 53.8279C105.56 59.6482 99.1881 63.6836 92.0333 65.1985C84.8786 66.7134 77.4176 65.607 71.0104 62.0809C64.6031 58.5548 59.6762 52.8439 57.1275 45.9889C54.5789 39.134 54.5782 31.5915 57.1257 24.7361C59.6731 17.8807 64.599 12.1689 71.0057 8.64167C77.4123 5.11447 84.873 4.00674 92.0281 5.52038C99.1831 7.03402 105.556 11.0682 109.985 16.8878L104.485 21.0742C96.3182 10.849 81.4367 8.96566 70.9678 16.9337C60.3459 25.0182 58.2889 40.1828 66.3734 50.8048C74.458 61.4267 89.6226 63.4837 100.245 55.3992C105.949 51.0577 109.183 44.6746 109.703 38.0496L103.735 37.3849C103.394 42.4356 100.955 47.318 96.6106 50.6248C88.6255 56.7024 77.2254 55.156 71.1478 47.1709C65.0702 39.1858 66.6166 27.7857 74.6017 21.7081C82.4336 15.7471 93.5507 17.1203 99.7088 24.7094L85.993 35.1488L134.422 24.36C133.59 19.1252 126.592 12.7605 126.369 12.7722C122.549 8.769 117.461 5.67162 111.106 3.48C104.378 1.16 96.1998 0 86.5718 0C81.1198 0 75.9868 0.463999 71.1728 1.392C66.3588 2.262 61.9508 3.625 57.9488 5.481C54.0048 7.337 50.5828 9.657 47.6828 12.441C44.8408 15.225 42.6368 18.531 41.0708 22.359C39.5048 26.187 38.7218 30.508 38.7218 35.322C38.7218 38.28 39.0408 41.093 39.6788 43.761C40.3168 46.429 41.2738 48.952 42.5498 51.33C43.8838 53.65 45.5368 55.796 47.5088 57.768C49.4808 59.74 51.7428 61.509 54.2948 63.075C56.9048 64.641 59.8338 65.975 63.0818 67.077ZM0 67.86H36.105V2.61H0V67.86ZM173.317 2.61H137.212V43.761C137.212 47.299 137.995 50.518 139.561 53.418C141.127 56.26 143.273 58.754 145.999 60.9C148.783 62.988 151.973 64.757 155.569 66.207C159.223 67.657 163.109 68.73 167.227 69.426C171.403 70.122 175.608 70.47 179.842 70.47C185.178 70.47 190.369 69.919 195.415 68.817C200.519 67.715 205.101 66.062 209.161 63.858C213.221 61.596 216.44 58.812 218.818 55.506C221.254 52.142 222.472 48.227 222.472 43.761V2.61H186.367V21.36C186.081 21.1311 183 23.3517 179.903 25.5843C176.721 27.8775 173.523 30.1833 173.317 29.86V2.61ZM186.367 23.36L173.317 31.86V34.86L186.367 26.86V23.36ZM185.725 37.9356L185.67 37.9117C185.42 37.7042 185.395 37.1351 185.395 37.1351C185.465 36.9899 185.619 36.664 185.619 36.664C185.737 36.6435 185.808 36.2057 185.768 36.1189C185.727 36.0321 185.664 36.0831 185.664 36.0831C185.664 36.0831 185.714 35.7668 185.598 35.4657C185.482 35.1646 185.297 35.1572 185.297 35.1572C185.084 34.8747 184.572 34.9522 184.572 34.9522L184.606 35.0218C184.409 34.972 184.28 35.1356 184.28 35.1356L184.349 35.1924C184.349 35.1924 184.098 35.5287 184.158 35.7042C184.218 35.8796 184.229 36.1242 184.229 36.1242C184.229 36.1242 184.177 36.0691 184.11 36.1156C184.071 36.1424 184.089 36.248 184.108 36.3607C184.122 36.4434 184.136 36.5299 184.129 36.592C184.12 36.6837 184.152 36.6946 184.185 36.7058C184.205 36.7125 184.226 36.7192 184.237 36.7437C184.267 36.8088 184.286 36.9063 184.286 36.9063L184.186 37.3513C184.058 37.3139 183.937 37.2831 183.829 37.2624C183.589 37.1352 183.196 36.9632 182.852 36.9865C182.314 37.0228 181.887 37.0013 181.463 36.9543C181.038 36.9074 180.828 36.8459 180.828 36.8459C180.828 36.8459 180.001 36.3254 179.868 36.1831C179.83 36.1416 179.802 36.1074 179.778 36.0784C179.719 36.0077 179.686 35.9675 179.592 35.9279C179.458 35.8722 179.275 35.6648 179.275 35.6648L179.123 35.4444C179.123 35.4444 179.166 35.3001 179.102 35.124C179.058 35.0018 179.067 34.8959 179.074 34.8203C179.077 34.787 179.079 34.7593 179.076 34.7391C179.066 34.6727 178.929 34.8083 178.929 34.8083C178.929 34.8083 178.934 34.7134 178.874 34.5525C178.814 34.3916 178.46 34.0021 178.369 34.0277C178.278 34.0532 178.425 34.2382 178.425 34.2382C178.425 34.2382 178.291 34.1015 178.253 34.1533C178.227 34.1877 178.289 34.2736 178.353 34.3632C178.385 34.4084 178.418 34.4545 178.441 34.4954C178.509 34.6174 178.553 34.7251 178.553 34.7251C178.553 34.7251 178.233 34.4128 178.13 34.4251C178.057 34.4338 178.084 34.465 178.137 34.5257C178.158 34.5502 178.184 34.5803 178.208 34.6149C178.294 34.7356 178.394 34.8624 178.394 34.8624C178.394 34.8624 178.148 34.6576 178.044 34.6822C177.98 34.6974 178.037 34.7405 178.11 34.7957C178.155 34.8298 178.206 34.8685 178.239 34.908C178.256 34.9287 178.271 34.9474 178.286 34.9651L178.288 34.9665C178.347 35.0362 178.393 35.0903 178.437 35.1862C178.447 35.2091 178.459 35.239 178.473 35.273C178.532 35.419 178.622 35.6409 178.746 35.7065L178.835 35.9096C178.835 35.9096 178.759 35.9122 178.805 35.9786C178.852 36.0451 179.022 36.345 179.081 36.558C179.121 36.7035 179.336 37.0915 179.628 37.4025C179.526 37.3737 179.432 37.3589 179.358 37.3471C179.297 37.3375 179.25 37.33 179.222 37.3185C179.115 37.2738 179.002 37.3204 178.877 37.3938C178.83 37.4213 178.767 37.4076 178.644 37.3811C178.438 37.3369 178.068 37.2571 177.334 37.2742C176.524 37.2931 176.039 37.2422 175.816 37.2088C175.78 37.0352 175.718 36.6065 175.927 36.3675C176.193 36.0631 176.388 35.729 176.252 35.4918C176.115 35.2547 175.577 35.5146 175.257 35.7826C174.937 36.0506 174.592 36.5437 174.458 36.931L174.324 37.1143L174.198 37.0774C174.198 37.0774 173.766 37.6973 173.821 37.885C173.876 38.0728 174.184 38.2013 174.184 38.2013L174.805 38.4221L174.926 38.2841C174.926 38.2841 174.997 38.3216 175.075 38.6213C175.154 38.921 175.499 38.9789 175.952 38.8703C176.406 38.7617 176.781 38.652 176.781 38.652C176.781 38.652 176.937 38.8426 177.669 38.8742C178.402 38.9058 178.654 38.9017 178.654 38.9017C178.654 38.9017 178.694 39.0516 178.864 39.1148C179.033 39.1779 179.133 39.2588 179.133 39.2588C179.133 39.2588 179.155 39.3385 179.257 39.562C179.307 39.6712 179.423 39.9017 179.541 40.136C179.664 40.381 179.789 40.63 179.844 40.7491L179.853 40.7684C179.861 40.7868 179.87 40.8041 179.878 40.8203L179.875 40.8224L179.763 40.8943L179.7 40.9347L179.648 40.9683C179.022 41.3628 177.457 42.3697 177.457 42.3697C177.457 42.3697 176.954 42.3658 176.688 42.1516C176.423 41.9374 175.978 41.6026 175.715 41.6299C175.451 41.6572 175.374 41.7051 175.374 41.7051C175.374 41.7051 175.234 42.1505 175.448 42.515C175.477 42.5639 175.504 42.6112 175.53 42.6565L175.531 42.6589C175.699 42.9502 175.821 43.1621 176.018 43.2346C176.246 43.3187 176.453 43.4279 176.453 43.4279L176.643 43.483L176.658 43.6186C176.658 43.6186 177.003 43.8419 177.105 43.8201C177.208 43.7983 177.778 43.4835 177.801 43.3423L177.988 43.2554L178.27 43.8691C178.27 43.8691 179.176 43.5634 179.394 42.9425C179.394 42.9425 180.396 42.2166 180.788 42.2132C180.788 42.2132 181.112 42.9071 181.925 42.9676C182.737 43.0282 183.278 43.0031 183.331 42.5088C183.573 42.4607 183.902 42.1729 184.247 41.8705C184.487 41.6606 184.735 41.4437 184.967 41.2951C185.534 40.9324 185.725 40.5508 185.725 40.5508L185.728 40.5444C185.857 40.8565 186 41.246 186.054 41.4734C186.081 41.5848 186.089 41.6755 186.097 41.7544C186.115 41.9544 186.127 42.0789 186.409 42.2726C186.449 42.2999 186.489 42.3204 186.527 42.335C186.568 42.3967 186.596 42.438 186.596 42.438C186.567 42.5605 186.681 42.637 186.837 42.7415L186.868 42.762C186.942 42.812 186.992 42.8995 187.036 42.9777C187.094 43.08 187.143 43.1661 187.226 43.131C187.372 43.0689 187.1 42.7449 187.1 42.7449C187.1 42.7449 187.142 42.7565 187.351 42.8319C187.458 42.8705 187.538 43.0488 187.606 43.1973C187.67 43.3386 187.721 43.4528 187.772 43.3939C187.875 43.273 187.619 42.8003 187.619 42.8003C187.735 42.8277 187.855 42.97 187.956 43.0891C188.038 43.186 188.107 43.2674 188.15 43.259C188.245 43.2404 188.197 43.0912 188.197 43.0912C188.351 42.9741 187.747 42.4586 187.518 42.3604C187.378 42.2999 187.251 42.2421 187.144 42.1592C187.149 42.1537 187.154 42.1491 187.157 42.1456L187.164 42.1385C187.164 42.1385 187.111 41.4178 187.104 41.0701C187.098 40.8188 187.046 40.7629 186.985 40.6981C186.962 40.6732 186.938 40.647 186.914 40.608C186.886 40.5613 186.873 40.4439 186.856 40.2792C186.821 39.9483 186.766 39.4262 186.522 38.9007L186.522 38.8989C186.307 38.4365 186.044 38.1954 185.865 38.0752L185.765 37.9536L185.725 37.9356ZM181.125 38.084C180.797 37.9967 180.478 37.9121 180.25 37.8277C180.377 37.9883 180.514 38.1993 180.661 38.4265C180.848 38.7144 181.051 39.0285 181.274 39.299C181.338 39.3762 181.395 39.4543 181.443 39.5326C181.864 39.2718 182.276 38.759 182.387 38.4936C182.108 38.3458 181.605 38.2116 181.125 38.084Z" fill="#18382B"/>
</svg>
